<svg width="170" height="148" viewBox="0 0 170 148" fill="none" xmlns="http://www.w3.org/2000/svg">
<rect x="8.26765" y="41.209" width="137.366" height="107.343" rx="14.5" transform="rotate(-15 8.26765 41.209)" fill="#333332" stroke="black"/>
<rect x="0.612372" y="37.8545" width="137.366" height="107.343" rx="14.5" transform="rotate(-15 0.612372 37.8545)" fill="#FECACA" stroke="black"/>
<path d="M89.2318 94.5408C93.5454 93.1045 97.1871 90.1443 99.4743 86.2151C100.671 83.9216 101.471 80.7069 100.617 78.2736C100.212 77.0402 99.4051 75.9784 98.3251 75.2582C97.2451 74.538 95.9547 74.2013 94.6605 74.3019C92.8632 74.7518 91.2672 75.7881 90.1251 77.2469C89.0052 78.706 87.6398 79.959 86.0901 80.9498C83.7171 82.1803 80.9318 81.8725 78.361 81.5073C75.7901 81.1421 72.9787 80.7872 70.6004 81.8975C69.7628 82.1868 69.0171 82.6936 68.4397 83.366C67.8624 84.0384 67.4741 84.8521 67.3148 85.7239C67.3148 85.7239 66.7904 88.8104 70.2987 91.8164C72.9535 93.8609 76.091 95.1859 79.4077 95.6631C82.7244 96.1404 86.1082 95.7538 89.2318 94.5408Z" fill="white"/>
<path d="M53.8985 65.7889C53.364 65.2038 52.6647 64.7946 51.8928 64.6154C51.1209 64.4362 50.3129 64.4953 49.5753 64.785C49.1313 64.9373 48.7366 65.2065 48.4327 65.5642C47.9634 66.1836 47.6703 66.9184 47.5847 67.6907C47.499 68.4631 47.6239 69.2443 47.946 69.9514C48.2059 70.4029 48.5532 70.7981 48.9677 71.1137C49.3822 71.4293 49.8554 71.659 50.3598 71.7894C50.8642 71.9198 51.3895 71.9482 51.905 71.873C52.4205 71.7979 52.9158 71.6206 53.3619 71.3517C53.7665 71.0245 54.1017 70.62 54.3482 70.1617C54.5946 69.7035 54.7473 69.2008 54.7972 68.6829C54.8472 68.165 54.7934 67.6423 54.6391 67.1454C54.4848 66.6485 54.233 66.1874 53.8985 65.7889Z" fill="white"/>
<path d="M111.405 49.1632C110.87 48.5809 110.17 48.1746 109.399 47.9976C108.628 47.8207 107.821 47.8814 107.086 48.1719C106.642 48.3201 106.246 48.5849 105.94 48.9385C105.469 49.555 105.176 50.2875 105.089 51.058C105.003 51.8285 105.127 52.6079 105.45 53.3131C105.7 53.7742 106.043 54.1788 106.456 54.5018C106.87 54.8248 107.345 55.0592 107.853 55.1906C108.361 55.3219 108.891 55.3473 109.409 55.2652C109.927 55.1831 110.423 54.9953 110.865 54.7134C111.268 54.3865 111.602 53.9829 111.848 53.5259C112.094 53.0688 112.246 52.5676 112.296 52.0512C112.346 51.5348 112.293 51.0135 112.141 50.5178C111.988 50.022 111.738 49.5615 111.405 49.1632Z" fill="white"/>
</svg>
