<svg width="102" height="70" viewBox="0 0 102 70" fill="none" xmlns="http://www.w3.org/2000/svg">
<g clip-path="url(#clip0_4788_717)">
<path d="M0.733572 31.7049C0.714905 31.7564 0.693336 31.81 0.67408 31.8629L0.657654 31.9072C0.197703 33.1202 0.521867 33.5132 1.66589 33.8315C7.13838 35.353 12.6452 36.0573 18.2651 34.7231C19.0472 34.5377 19.4554 34.7236 19.9157 35.4278C23.4396 40.8283 28.3341 43.937 34.9162 44.1029C35.2773 44.0834 35.6358 44.1747 35.9434 44.3643C36.251 44.554 36.4931 44.8329 36.6372 45.1638C38.3684 48.3343 41.1415 50.8133 44.4899 52.184C50.1951 54.6248 56.0526 54.6309 61.9772 53.1944C62.8939 52.972 63.3763 53.0842 64.0273 53.8724C67.5491 58.1321 72.0529 59.7287 77.5578 58.7134C83.5583 57.6059 88.6027 54.7871 93.0215 50.6832C94.025 49.7505 95.0718 48.8646 96.1191 47.9776C96.6834 47.4993 97.2474 47.022 97.8046 46.5374L97.8405 46.5058C98.1534 46.2348 98.4185 46.0051 98.0481 45.4611C96.0175 42.4761 95.3658 42.3866 92.8475 44.8926C92.7983 44.9409 92.7508 44.9921 92.7036 45.0437C92.6202 45.1394 92.5292 45.2283 92.4316 45.3096C91.5909 45.9799 90.7741 46.6811 89.9576 47.3824C87.8418 49.1998 85.7259 51.0172 83.1817 52.2855C81.5145 53.1176 79.7333 53.5504 77.963 53.9814L77.9555 53.9835C77.8314 54.0124 77.7071 54.0436 77.5828 54.074C74.2875 54.8794 71.1709 54.61 68.5117 52.1258C67.7299 51.3966 67.8319 51.2297 68.7224 50.8272C73.7524 48.558 77.8297 45.0676 81.2443 40.7982C82.9757 38.6319 84.0376 36.2127 83.5103 33.309C82.7681 29.2254 77.046 27.0168 73.1624 28.6971C66.6089 31.5327 61.7207 38.9556 61.704 46.3729C61.6988 48.6798 61.698 48.6799 59.3541 49.1525L59.3373 49.1564C54.0306 50.2287 48.974 49.5941 44.2283 46.927C42.7959 46.164 41.6354 44.9773 40.9063 43.53C40.9738 43.4959 41.033 43.4615 41.0859 43.433C41.1718 43.3801 41.2634 43.337 41.359 43.3044C49.0085 41.0366 54.6757 36.3725 58.3607 29.3121C58.8244 28.4613 59.0783 27.5126 59.1012 26.5446C59.1242 25.5765 58.9156 24.6169 58.4927 23.7452C58.0699 22.8736 57.4449 22.115 56.6696 21.5322C55.8943 20.9494 54.991 20.5592 54.0344 20.394C51.8911 19.9871 49.6735 20.2749 47.706 21.2153C40.3361 24.6081 35.9887 30.2436 35.2706 38.4056C35.1544 39.7247 34.6808 39.7461 33.6444 39.5653C30.1772 38.9656 27.024 37.19 24.7179 34.5387L24.6963 34.5145C23.476 33.1624 23.4735 33.1605 25.1625 32.2445C29.9019 29.6735 33.9788 26.3701 36.7727 21.6746C38.4407 18.8717 38.1375 15.3217 35.9095 13.6242C33.1194 11.4994 30.0474 11.4207 26.8569 12.7785C21.3446 15.1231 17.5009 22.3158 18.0267 28.8209C18.1363 30.1725 17.6605 30.4868 16.5121 30.6629C12.3514 31.3029 8.26773 30.8153 4.22333 29.8806L4.07236 29.846C2.88354 29.5706 2.27773 29.4309 1.86202 29.6481C1.42839 29.872 1.1988 30.4766 0.733572 31.7049ZM69.561 37.32C70.7353 35.7508 72.0027 34.2279 73.8589 33.3868C74.4732 33.0836 75.1204 32.8523 75.7878 32.6973C76.3719 32.5819 76.9768 32.6322 77.5337 32.8424C78.0907 33.0526 78.5774 33.4143 78.9386 33.8866C79.57 34.6364 79.1498 35.3744 78.7681 36.0449C78.7144 36.1394 78.6625 36.2315 78.6134 36.323C76.3631 40.5159 72.8639 43.4382 68.8024 45.7658C68.1677 46.1284 67.5138 46.4585 66.8605 46.7872L66.7185 46.859C66.6239 46.8968 66.5229 46.9159 66.421 46.9154C66.3579 46.9208 66.2868 46.9257 66.2083 46.9356C66.0377 43.2609 67.4412 40.1534 69.5604 37.3213L69.561 37.32ZM44.2862 28.9836C46.4509 26.665 48.8818 24.843 52.2424 24.7598C54.2959 24.7085 55.0675 25.619 54.2119 27.4498C52.7326 30.6148 50.3446 33.0993 47.6161 35.237C45.607 36.8151 43.3358 38.0294 40.9059 38.8245C39.5869 39.2585 39.4891 38.7969 39.7162 37.7349C40.3873 34.4488 41.9706 31.4169 44.2856 28.9849L44.2862 28.9836ZM27.7908 17.3517C29.2197 16.3389 30.8856 15.9135 32.6107 16.9293C33.2885 17.3275 33.4062 17.8125 33.2104 18.5198C32.8986 19.4333 32.4082 20.2761 31.7674 20.9991C31.7288 21.0487 31.6906 21.0981 31.6522 21.1482C29.2107 24.3607 25.9938 26.9046 22.3011 28.5429C22.5903 23.8676 24.0405 20.0114 27.7902 17.3531L27.7908 17.3517Z" fill="#FFFBEB" stroke="#231F20" stroke-width="1.10062" stroke-linecap="round" stroke-linejoin="round"/>
</g>
<defs>
<clipPath id="clip0_4788_717">
<rect width="102" height="70" fill="white"/>
</clipPath>
</defs>
</svg>
