<svg width="222" height="189" viewBox="0 0 222 189" fill="none" xmlns="http://www.w3.org/2000/svg">
<path d="M108.159 3.17676C109.762 2.06992 111.851 2.00096 113.515 2.96973L113.841 3.17676L128.383 13.2188C129.898 14.2647 131.759 14.6691 133.562 14.3545L133.922 14.2822L152.118 10.1182C154.165 9.64978 156.278 10.5101 157.419 12.2559L157.526 12.4277L165.55 25.8613C166.576 27.5787 168.283 28.7696 170.235 29.1455L170.629 29.21L188.464 31.6016C190.759 31.9095 192.532 33.7495 192.771 36.0332L192.79 36.2549L193.626 50.0635C193.762 52.3076 194.967 54.34 196.847 55.54L197.231 55.7686L211.234 63.4971C213.445 64.7174 214.389 67.3848 213.47 69.71L213.375 69.9336L207.827 82.208C206.8 84.4816 207.062 87.124 208.501 89.1475L208.644 89.3418L217.139 100.459C218.703 102.507 218.45 105.395 216.59 107.14L216.404 107.305L205.059 116.948C203.205 118.523 202.307 120.944 202.672 123.337L202.711 123.568L205.178 136.759C205.625 139.149 204.288 141.501 202.034 142.354L201.813 142.432L185.561 147.729C183.543 148.387 181.94 149.922 181.189 151.891L181.051 152.29L176.673 166.246C176.015 168.343 174.069 169.756 171.888 169.749L171.676 169.744L153.15 168.905C151.25 168.819 149.402 169.51 148.026 170.81L147.758 171.077L136.244 183.201C134.843 184.677 132.692 185.152 130.808 184.419L130.626 184.344L113.79 177.026C112.121 176.301 110.241 176.256 108.546 176.891L108.21 177.026L91.374 184.344C89.5073 185.155 87.3424 184.752 85.8936 183.341L85.7559 183.201L74.2422 171.077C72.9318 169.697 71.1205 168.914 69.2285 168.897L68.8496 168.905L50.3242 169.744C48.1287 169.843 46.1353 168.499 45.3955 166.446L45.3271 166.246L40.9492 152.29C40.3141 150.265 38.798 148.646 36.8379 147.873L36.4395 147.729L20.1865 142.432C17.8745 141.678 16.4512 139.376 16.7842 136.989L16.8223 136.759L19.2891 123.568C19.7359 121.178 18.9093 118.732 17.1182 117.104L16.9414 116.948L5.5957 107.305C3.63208 105.636 3.26736 102.76 4.71484 100.66L4.86133 100.459L13.3564 89.3418C14.8713 87.3593 15.213 84.726 14.2686 82.4297L14.1729 82.208L8.625 69.9336C7.58505 67.6324 8.42705 64.9308 10.5557 63.6191L10.7656 63.4971L24.7686 55.7686C26.737 54.6822 28.0555 52.722 28.332 50.5088L28.374 50.0635L29.21 36.2549C29.3501 33.9438 31.0563 32.0421 33.3164 31.6367L33.5361 31.6016L51.3711 29.21C53.3537 28.944 55.1216 27.8441 56.2363 26.1982L56.4502 25.8613L64.4736 12.4277C65.5504 10.6252 67.6336 9.69394 69.6836 10.0771L69.8818 10.1182L88.0781 14.2822C89.8723 14.6928 91.7506 14.379 93.3096 13.4189L93.6172 13.2188L108.159 3.17676Z" stroke="#F97316" stroke-width="2"/>
<path d="M59.8286 70.8291L64.1694 46.7837C64.1922 46.6925 64.2492 46.647 64.3403 46.647H69.416C69.5072 46.647 69.5641 46.6925 69.5869 46.7837L73.7568 70.8291C73.7682 70.943 73.7227 71 73.6201 71H69.7407C69.6268 71 69.5641 70.943 69.5527 70.8291L69.1768 68.2656H64.4087L64.0327 70.8291C64.0213 70.943 63.9644 71 63.8618 71H59.9653C59.8742 71 59.8286 70.943 59.8286 70.8291ZM66.6816 54.6963L65.1094 64.5229H68.4761L67.0405 54.6963L66.8354 53.3975L66.6816 54.6963ZM80.0459 71H76.0811C75.9899 71 75.9443 70.943 75.9443 70.8291L76.0127 46.7837C76.0127 46.6925 76.0583 46.647 76.1494 46.647H83.2246C84.4893 46.647 85.6514 46.9546 86.7109 47.5698C87.7705 48.1851 88.6136 49.0111 89.2402 50.0479C89.8783 51.0846 90.1973 52.2581 90.1973 53.5684C90.1973 54.4229 90.0662 55.1976 89.8042 55.8926C89.5422 56.5876 89.2345 57.1743 88.8813 57.6528C88.5396 58.1313 88.2262 58.4845 87.9414 58.7124C89.2061 60.1138 89.8384 61.7601 89.8384 63.6514L89.8726 70.8291C89.8726 70.943 89.8156 71 89.7017 71H85.7368C85.6457 71 85.6001 70.9658 85.6001 70.8975V63.6514C85.6001 62.8083 85.3039 62.0791 84.7114 61.4639C84.119 60.8486 83.3898 60.541 82.5239 60.541H80.2168L80.1826 70.8291C80.1826 70.943 80.137 71 80.0459 71ZM83.2246 50.834H80.2168V56.3369H83.2246C83.9424 56.3369 84.5804 56.0692 85.1387 55.5337C85.7083 54.9982 85.9932 54.3431 85.9932 53.5684C85.9932 52.8278 85.7197 52.1898 85.1729 51.6543C84.626 51.1074 83.9766 50.834 83.2246 50.834ZM104.279 71H92.9658C92.8747 71 92.8291 70.943 92.8291 70.8291L92.8633 46.7837C92.8633 46.6925 92.9089 46.647 93 46.647H104.245C104.336 46.647 104.382 46.7039 104.382 46.8179V50.7314C104.382 50.8226 104.336 50.8682 104.245 50.8682H97.0674V56.3369H104.245C104.336 56.3369 104.382 56.3825 104.382 56.4736L104.416 60.4385C104.416 60.5296 104.37 60.5752 104.279 60.5752H97.0674V66.6934H104.279C104.37 66.6934 104.416 66.7503 104.416 66.8643V70.8633C104.416 70.9544 104.37 71 104.279 71ZM123.916 71H119.899C119.82 71 119.78 70.9544 119.78 70.8633L119.814 60.917L115.131 46.7837C115.109 46.6925 115.143 46.647 115.234 46.647H119.13C119.244 46.647 119.313 46.6925 119.335 46.7837L121.916 56.2002L124.548 46.7837C124.571 46.6925 124.628 46.647 124.719 46.647H128.649C128.741 46.647 128.775 46.6925 128.752 46.7837L124.018 60.7803L124.052 70.8633C124.052 70.9544 124.007 71 123.916 71ZM137.143 71.3418C135.901 71.3418 134.756 71.0228 133.708 70.3848C132.671 69.7467 131.834 68.8979 131.196 67.8384C130.569 66.7674 130.256 65.5939 130.256 64.3179L130.29 53.2266C130.29 51.9277 130.603 50.7599 131.23 49.7231C131.845 48.675 132.677 47.8376 133.725 47.2109C134.773 46.5729 135.913 46.2539 137.143 46.2539C138.419 46.2539 139.564 46.5672 140.578 47.1938C141.604 47.8205 142.424 48.6636 143.039 49.7231C143.666 50.7713 143.979 51.9391 143.979 53.2266L144.013 64.3179C144.013 65.5939 143.706 66.7617 143.09 67.8213C142.464 68.8923 141.632 69.7467 140.595 70.3848C139.558 71.0228 138.408 71.3418 137.143 71.3418ZM137.143 67.1206C137.849 67.1206 138.465 66.8358 138.989 66.2661C139.513 65.6851 139.775 65.0356 139.775 64.3179L139.741 53.2266C139.741 52.4518 139.496 51.7967 139.006 51.2612C138.516 50.7257 137.895 50.458 137.143 50.458C136.425 50.458 135.81 50.7201 135.297 51.2441C134.785 51.7682 134.528 52.429 134.528 53.2266V64.3179C134.528 65.0812 134.785 65.742 135.297 66.3003C135.81 66.8472 136.425 67.1206 137.143 67.1206ZM153.105 71.3418C151.875 71.3418 150.735 71.0228 149.687 70.3848C148.639 69.7467 147.801 68.8923 147.175 67.8213C146.56 66.7389 146.252 65.5597 146.252 64.2837L146.32 46.7837C146.32 46.6925 146.366 46.647 146.457 46.647H150.388C150.479 46.647 150.524 46.6925 150.524 46.7837V64.2837C150.524 65.0698 150.775 65.742 151.276 66.3003C151.778 66.8472 152.387 67.1206 153.105 67.1206C153.857 67.1206 154.484 66.8472 154.985 66.3003C155.486 65.742 155.737 65.0698 155.737 64.2837V46.7837C155.737 46.6925 155.782 46.647 155.874 46.647H159.804C159.895 46.647 159.941 46.6925 159.941 46.7837L160.009 64.2837C160.009 65.5711 159.702 66.756 159.086 67.8384C158.46 68.9093 157.628 69.7638 156.591 70.4019C155.555 71.0285 154.392 71.3418 153.105 71.3418ZM69.3477 134H65.3828C65.2917 134 65.2461 133.943 65.2461 133.829L65.3145 109.784C65.3145 109.693 65.36 109.647 65.4512 109.647H72.5264C73.791 109.647 74.9531 109.955 76.0127 110.57C77.0723 111.185 77.9154 112.011 78.542 113.048C79.18 114.085 79.499 115.258 79.499 116.568C79.499 117.423 79.368 118.198 79.106 118.893C78.8439 119.588 78.5363 120.174 78.1831 120.653C77.8413 121.131 77.528 121.485 77.2432 121.712C78.5078 123.114 79.1401 124.76 79.1401 126.651L79.1743 133.829C79.1743 133.943 79.1174 134 79.0034 134H75.0386C74.9474 134 74.9019 133.966 74.9019 133.897V126.651C74.9019 125.808 74.6056 125.079 74.0132 124.464C73.4207 123.849 72.6916 123.541 71.8257 123.541H69.5186L69.4844 133.829C69.4844 133.943 69.4388 134 69.3477 134ZM72.5264 113.834H69.5186V119.337H72.5264C73.2441 119.337 73.8822 119.069 74.4404 118.534C75.0101 117.998 75.2949 117.343 75.2949 116.568C75.2949 115.828 75.0215 115.19 74.4746 114.654C73.9277 114.107 73.2783 113.834 72.5264 113.834ZM93.5811 134H82.2676C82.1764 134 82.1309 133.943 82.1309 133.829L82.165 109.784C82.165 109.693 82.2106 109.647 82.3018 109.647H93.5469C93.638 109.647 93.6836 109.704 93.6836 109.818V113.731C93.6836 113.823 93.638 113.868 93.5469 113.868H86.3691V119.337H93.5469C93.638 119.337 93.6836 119.382 93.6836 119.474L93.7178 123.438C93.7178 123.53 93.6722 123.575 93.5811 123.575H86.3691V129.693H93.5811C93.6722 129.693 93.7178 129.75 93.7178 129.864V133.863C93.7178 133.954 93.6722 134 93.5811 134ZM95.6489 133.829L99.9897 109.784C100.013 109.693 100.069 109.647 100.161 109.647H105.236C105.327 109.647 105.384 109.693 105.407 109.784L109.577 133.829C109.589 133.943 109.543 134 109.44 134H105.561C105.447 134 105.384 133.943 105.373 133.829L104.997 131.266H100.229L99.853 133.829C99.8416 133.943 99.7847 134 99.6821 134H95.7856C95.6945 134 95.6489 133.943 95.6489 133.829ZM102.502 117.696L100.93 127.523H104.296L102.861 117.696L102.656 116.397L102.502 117.696ZM118.208 133.966L111.936 134C111.822 134 111.765 133.943 111.765 133.829L111.833 109.784C111.833 109.693 111.879 109.647 111.97 109.647L118.515 109.613C119.814 109.579 120.987 109.875 122.036 110.501C123.095 111.128 123.938 111.977 124.565 113.048C125.203 114.107 125.522 115.281 125.522 116.568V126.617C125.522 127.962 125.197 129.192 124.548 130.309C123.887 131.414 123.01 132.297 121.916 132.958C120.822 133.607 119.586 133.943 118.208 133.966ZM118.515 113.8L116.071 113.834L116.037 129.693H118.208C119.073 129.693 119.803 129.391 120.395 128.788C120.987 128.184 121.284 127.46 121.284 126.617V116.534C121.284 115.794 121.01 115.15 120.463 114.603C119.917 114.045 119.267 113.777 118.515 113.8ZM135.571 134H131.555C131.475 134 131.435 133.954 131.435 133.863L131.469 123.917L126.787 109.784C126.764 109.693 126.798 109.647 126.889 109.647H130.786C130.9 109.647 130.968 109.693 130.991 109.784L133.571 119.2L136.203 109.784C136.226 109.693 136.283 109.647 136.374 109.647H140.305C140.396 109.647 140.43 109.693 140.407 109.784L135.673 123.78L135.708 133.863C135.708 133.954 135.662 134 135.571 134ZM154.711 127.557H152.319C152.216 127.557 152.159 127.5 152.148 127.386L151.413 119.337V109.818C151.413 109.704 151.459 109.647 151.55 109.647H155.48C155.594 109.647 155.651 109.704 155.651 109.818L155.617 119.337L154.882 127.386C154.871 127.5 154.814 127.557 154.711 127.557ZM155.48 134H151.55C151.459 134 151.413 133.943 151.413 133.829V130.018C151.413 129.916 151.459 129.864 151.55 129.864H155.48C155.572 129.864 155.617 129.916 155.617 130.018V133.829C155.617 133.943 155.572 134 155.48 134Z" fill="#F97316"/>
</svg>
