<svg width="226" height="246" viewBox="0 0 226 246" fill="none" xmlns="http://www.w3.org/2000/svg">
<g opacity="0.4">
<rect x="21.001" y="32" width="200" height="200" rx="100" fill="#DD3434"/>
<circle cx="121.001" cy="132" r="4" fill="#FFFBEB"/>
</g>
<ellipse cx="75.501" cy="205" rx="6.5" ry="6" fill="white"/>
<ellipse cx="45.501" cy="94" rx="6.5" ry="6" fill="white"/>
<ellipse cx="191.501" cy="82" rx="6.5" ry="6" fill="white"/>
<path d="M81.6844 48.7018L92.7779 66.5325L88.8551 68.9731L84.1008 61.3313L77.4779 65.4518L82.2323 73.0935L78.3095 75.5341L67.216 57.7034L71.1388 55.2628L75.7347 62.6498L82.3575 58.5294L77.7616 51.1423L81.6844 48.7018Z" fill="white"/>
<path d="M103.77 40.9473C103.988 41.3825 104.155 41.7912 104.273 42.1735C104.473 42.8234 104.515 43.3336 104.399 43.7042C104.283 44.0748 103.996 44.3307 103.537 44.472L99.6952 45.6552L104.905 62.5711L100.547 63.9133L95.3372 46.9974L90.2911 48.5516L89.3197 45.3978L103.77 40.9473Z" fill="white"/>
<path d="M132.412 38.8433C133.485 42.0925 134.258 45.3148 134.731 48.5101C135.203 51.6855 135.452 55.4531 135.477 59.8131L130.797 59.861L130.785 58.661C130.749 55.1812 130.64 52.3622 130.458 50.2039C130.276 48.0257 129.964 45.8487 129.521 43.6731C128.725 46.0014 128.086 48.038 127.604 49.7831C127.121 51.5281 126.585 53.8037 125.993 56.6099L122.334 56.6473C121.745 53.8932 121.202 51.6486 120.705 49.9136C120.227 48.1784 119.566 46.155 118.722 43.8436C118.325 46.0877 118.049 48.3607 117.892 50.6624C117.755 52.9439 117.677 56.0549 117.658 59.9953L113.098 60.0419C113.112 55.6015 113.313 51.7893 113.701 48.6051C114.108 45.4208 114.786 42.2237 115.733 39.0139L120.893 38.9611C121.879 41.5512 122.579 43.5041 122.993 44.8199C123.406 46.1158 123.76 47.5222 124.056 49.0393C124.4 47.5157 124.776 46.0918 125.182 44.7676C125.609 43.4431 126.299 41.486 127.252 38.8961L132.412 38.8433Z" fill="white"/>
<path d="M152.895 61.5833L152.04 64.6462L140.135 61.3233L145.78 41.0964L150.23 42.3385L145.44 59.5024L152.895 61.5833Z" fill="white"/>
<path d="M195.353 124.115C195.273 123.279 195.279 122.384 195.37 121.432C195.44 120.481 195.559 119.827 195.726 119.469C196.841 119.364 197.607 119.392 198.025 119.553C198.462 119.713 198.696 119.962 198.728 120.3C198.743 120.459 198.74 120.64 198.719 120.843C198.7 121.066 198.685 121.228 198.675 121.33C198.563 122.063 198.534 122.709 198.587 123.267C198.664 124.083 198.962 124.678 199.479 125.05C199.998 125.443 200.706 125.597 201.602 125.512L216.744 124.079L217.18 128.679L202.037 130.112C200.863 130.223 199.791 130.043 198.822 129.572C197.853 129.102 197.063 128.393 196.451 127.446C195.839 126.5 195.473 125.389 195.353 124.115Z" fill="white"/>
<path d="M201.027 148.545C199.397 148.359 198.218 148.285 197.489 148.323C196.758 148.38 196.111 148.578 195.55 148.917C195.299 148.466 195.112 147.901 194.988 147.222C194.884 146.546 194.862 145.94 194.923 145.403C194.98 144.907 195.204 144.53 195.596 144.272C195.987 144.015 196.579 143.861 197.369 143.81C196.596 143.179 196.072 142.475 195.798 141.699C195.524 140.923 195.454 139.948 195.588 138.776C195.753 137.325 196.274 136.197 197.151 135.391C198.048 134.588 199.132 134.258 200.404 134.403C202.192 134.607 203.439 135.504 204.143 137.094C204.865 138.706 205.127 141.181 204.928 144.52L206.478 144.697C207.292 144.79 207.923 144.64 208.37 144.248C208.815 143.876 209.088 143.253 209.187 142.379C209.26 141.743 209.203 141.092 209.017 140.427C208.849 139.784 208.509 138.97 207.997 137.986C207.929 137.877 207.905 137.734 207.925 137.555C207.966 137.197 208.249 136.837 208.773 136.474C209.295 136.131 209.962 135.845 210.773 135.615C211.361 136.467 211.794 137.613 212.072 139.054C212.369 140.517 212.439 141.934 212.282 143.305C212.047 145.372 211.379 146.906 210.278 147.908C209.198 148.912 207.763 149.312 205.975 149.108L201.027 148.545ZM198.273 140.652C198.205 141.248 198.351 141.818 198.712 142.363C199.07 142.927 199.662 143.478 200.486 144.014L202.692 144.266C202.82 142.61 202.685 141.326 202.285 140.415C201.904 139.526 201.266 139.03 200.371 138.929C199.795 138.863 199.318 138.99 198.939 139.309C198.56 139.628 198.338 140.076 198.273 140.652Z" fill="white"/>
<path d="M204.47 171.551C201.524 170.278 198.907 168.758 196.619 166.993C194.349 165.234 192.403 163.121 190.78 160.655L192.154 156.686C194.986 155.719 197.847 155.217 200.738 155.181C203.642 155.169 206.638 155.561 209.728 156.355L208.208 160.75C205.989 160.066 203.818 159.643 201.695 159.48C199.584 159.342 197.406 159.519 195.161 160.012C196.641 161.731 198.266 163.15 200.037 164.271C201.82 165.417 203.804 166.379 205.99 167.157L204.47 171.551Z" fill="white"/>
<path d="M186.547 181.2C185.154 180.335 184.12 179.763 183.445 179.486C182.759 179.225 182.09 179.127 181.437 179.193C181.404 178.678 181.476 178.087 181.655 177.421C181.85 176.765 182.09 176.208 182.375 175.749C182.638 175.324 183.002 175.079 183.466 175.014C183.93 174.95 184.531 175.063 185.267 175.356C184.838 174.454 184.666 173.594 184.751 172.775C184.835 171.957 185.189 171.046 185.811 170.043C186.581 168.803 187.535 168.006 188.672 167.653C189.827 167.31 190.948 167.477 192.035 168.152C193.564 169.101 194.307 170.445 194.263 172.184C194.226 173.95 193.403 176.299 191.795 179.232L193.12 180.055C193.817 180.487 194.451 180.622 195.023 180.459C195.584 180.313 196.097 179.866 196.561 179.119C196.899 178.575 197.126 177.963 197.243 177.282C197.366 176.629 197.406 175.748 197.365 174.639C197.35 174.512 197.39 174.372 197.485 174.219C197.674 173.913 198.084 173.708 198.713 173.605C199.332 173.518 200.057 173.544 200.889 173.684C201.055 174.705 200.956 175.927 200.591 177.348C200.233 178.797 199.69 180.108 198.962 181.28C197.865 183.048 196.605 184.148 195.181 184.583C193.775 185.028 192.307 184.776 190.778 183.827L186.547 181.2ZM187.435 172.888C187.118 173.398 187.007 173.976 187.1 174.622C187.182 175.285 187.481 176.036 187.997 176.874L189.883 178.045C190.708 176.603 191.134 175.385 191.163 174.39C191.199 173.424 190.834 172.703 190.069 172.228C189.576 171.922 189.091 171.832 188.612 171.959C188.133 172.086 187.741 172.395 187.435 172.888Z" fill="white"/>
<path d="M174.39 184.969C175.763 183.57 177.063 182.675 178.29 182.282C179.503 181.903 180.445 182.043 181.115 182.702C181.515 183.094 181.717 183.559 181.722 184.097C181.727 184.662 181.485 185.223 180.995 185.779C180.13 185.518 179.323 185.483 178.575 185.674C177.813 185.878 177.075 186.345 176.36 187.072C175.127 188.328 174.981 189.418 175.923 190.343C176.308 190.722 176.776 190.831 177.326 190.67C177.876 190.51 178.686 190.156 179.756 189.609C180.84 189.047 181.777 188.622 182.566 188.332C183.342 188.056 184.161 187.964 185.025 188.055C185.902 188.16 186.734 188.598 187.518 189.369C188.189 190.028 188.571 190.809 188.664 191.713C188.757 192.646 188.596 193.581 188.18 194.518C187.765 195.483 187.157 196.373 186.359 197.186C185.336 198.228 184.239 198.945 183.069 199.337C181.898 199.73 180.761 199.818 179.655 199.601C179.481 199.066 179.419 198.5 179.47 197.906C179.522 197.34 179.674 196.928 179.926 196.671C180.066 196.529 180.207 196.428 180.348 196.371C180.503 196.327 180.686 196.311 180.899 196.323C182.328 196.466 183.45 196.123 184.263 195.296C184.795 194.754 185.101 194.228 185.182 193.718C185.262 193.236 185.096 192.792 184.682 192.386C184.239 191.951 183.715 191.815 183.108 191.976C182.488 192.151 181.642 192.54 180.573 193.144C179.574 193.733 178.701 194.165 177.954 194.441C177.207 194.744 176.423 194.843 175.602 194.738C174.781 194.66 173.993 194.25 173.236 193.507C172.052 192.344 171.559 191.019 171.758 189.532C171.957 188.074 172.834 186.553 174.39 184.969Z" fill="white"/>
<path d="M161.037 195.75C165.664 192.74 169.548 193.65 172.688 198.479C174.127 200.692 174.661 202.815 174.288 204.846C173.915 206.878 172.681 208.575 170.585 209.938C168.942 211.006 167.325 211.473 165.735 211.339C164.138 211.232 162.795 210.542 161.706 209.271C162.297 208.051 162.911 207.235 163.548 206.82C163.816 206.646 164.097 206.583 164.391 206.63C164.667 206.689 164.984 206.865 165.342 207.157C166.051 207.698 166.683 207.991 167.237 208.036C167.802 208.098 168.395 207.927 169.015 207.524C169.954 206.913 170.422 206.036 170.418 204.893C170.398 203.762 169.897 202.441 168.916 200.932C167.858 199.306 166.827 198.271 165.823 197.826C164.812 197.41 163.762 197.556 162.672 198.265C161.918 198.755 161.486 199.394 161.377 200.18C161.279 200.984 161.487 202.018 161.999 203.283C161.077 203.883 160.306 204.146 159.685 204.072C159.065 203.998 158.509 203.584 158.019 202.83C157.604 202.193 157.469 201.434 157.612 200.553C157.738 199.684 158.103 198.814 158.707 197.945C159.321 197.092 160.098 196.36 161.037 195.75Z" fill="white"/>
<path d="M150.931 219.446C150.038 219.799 149.31 219.86 148.746 219.631C148.19 219.421 147.747 218.897 147.416 218.06C147.291 217.744 147.213 217.409 147.181 217.056C147.138 216.729 147.158 216.452 147.241 216.226C147.515 216.268 147.803 216.262 148.104 216.208C148.405 216.153 148.816 216.023 149.337 215.818C150.546 215.34 151.302 214.612 151.603 213.633C151.886 212.661 151.727 211.413 151.124 209.887L148.227 202.548L152.357 200.918L158.416 216.266L154.286 217.896L153.482 215.859C153.396 216.731 153.129 217.471 152.681 218.078C152.24 218.704 151.656 219.16 150.931 219.446Z" fill="white"/>
<path d="M144.1 221.22L139.777 222.231L136.02 206.164L140.343 205.153L144.1 221.22ZM142.833 224.628C144.352 224.272 145.289 224.854 145.645 226.373L145.747 226.811C146.102 228.33 145.52 229.268 144.001 229.623L143.592 229.718C142.073 230.074 141.136 229.492 140.781 227.973L140.679 227.535C140.323 226.016 140.905 225.078 142.424 224.723L142.833 224.628Z" fill="white"/>
<path d="M123.341 224.406C121.203 224.493 119.555 223.861 118.399 222.507C117.243 221.173 116.61 219.158 116.499 216.46C116.427 214.701 116.683 213.139 117.267 211.774C117.852 210.409 118.708 209.333 119.837 208.546C120.966 207.759 122.289 207.334 123.808 207.272C124.647 207.238 125.683 207.365 126.916 207.655L126.627 200.611L131.063 200.428L131.763 217.454C131.829 219.073 131.947 220.239 132.117 220.952C132.267 221.687 132.553 222.306 132.974 222.809C132.427 223.152 131.848 223.426 131.236 223.631C130.604 223.837 130.008 223.952 129.448 223.975C129.029 223.992 128.683 223.866 128.412 223.597C128.141 223.328 127.923 222.906 127.76 222.332C126.612 223.641 125.14 224.332 123.341 224.406ZM124.556 210.124C123.317 210.175 122.398 210.723 121.801 211.768C121.183 212.814 120.915 214.317 120.995 216.275C121.072 218.134 121.367 219.483 121.882 220.322C122.398 221.182 123.175 221.59 124.214 221.547C124.854 221.521 125.467 221.346 126.054 221.021C126.642 220.697 127.096 220.308 127.418 219.854L127.402 219.465L127.036 210.562C126.202 210.236 125.375 210.09 124.556 210.124Z" fill="white"/>
<path d="M102.877 208.563C102.67 208.468 102.523 208.312 102.438 208.095C102.352 207.878 102.332 207.631 102.378 207.355C102.446 206.941 102.63 206.627 102.929 206.412C103.297 206.149 103.862 205.979 104.625 205.902C105.368 205.822 106.173 205.854 107.041 205.998C108.403 206.223 109.436 206.779 110.141 207.666C110.842 208.572 111.089 209.657 110.88 210.92L109.289 220.539L111.776 220.95L111.316 223.733L108.829 223.322L108.095 227.761L103.715 227.037L104.449 222.597L101.371 222.088L101.831 219.306L104.909 219.815L106.436 210.58C106.55 209.89 106.523 209.378 106.355 209.047C106.164 208.731 105.782 208.526 105.21 208.432C104.578 208.327 103.801 208.371 102.877 208.563Z" fill="white"/>
<path d="M59.9755 176.437C61.8381 179.014 62.5193 181.545 62.0192 184.028C61.5073 186.495 59.8492 188.742 57.0448 190.769C55.213 192.093 53.4122 192.913 51.6423 193.229C49.8606 193.53 48.1879 193.332 46.624 192.636C45.0601 191.94 43.6749 190.758 42.4683 189.088C41.7303 188.067 41.1999 186.957 40.8771 185.759C40.5264 184.557 40.4437 183.469 40.629 182.496C41.2063 182.203 41.839 182.054 42.5272 182.05C43.2154 182.046 43.659 182.182 43.8582 182.458C44.0222 182.685 44.1015 182.948 44.0962 183.248C44.073 184.104 44.148 184.839 44.3211 185.454C44.4825 186.053 44.7682 186.636 45.1782 187.204C47.1696 189.96 50.1997 189.867 54.2685 186.927C58.3049 184.01 59.3274 181.174 57.336 178.418C56.8088 177.689 56.1592 177.097 55.3872 176.643C54.6034 176.173 53.7543 175.886 52.84 175.782C52.7489 175.28 52.7835 174.799 52.9437 174.338C53.0877 173.888 53.3299 173.54 53.6703 173.294C54.1404 172.955 54.7479 172.873 55.4929 173.051C56.2262 173.212 56.9955 173.593 57.801 174.196C58.6064 174.798 59.3313 175.545 59.9755 176.437Z" fill="white"/>
<path d="M52.0972 161.039C52.9706 163.339 53.2632 165.293 52.975 166.9C52.6868 168.507 51.8602 169.569 50.4953 170.088C49.841 170.336 49.2238 170.26 48.644 169.86C48.057 169.441 47.5624 168.731 47.1603 167.728C48.2208 167.197 48.9118 166.453 49.2331 165.497C49.5474 164.522 49.4666 163.408 48.9909 162.155C48.1175 159.855 46.8301 159.029 45.1286 159.675C44.4555 159.93 44.0247 160.458 43.8361 161.257C43.6404 162.037 43.6129 163.288 43.7535 165.011C43.9744 167.451 43.8034 169.367 43.2404 170.757C42.6587 172.155 41.6106 173.141 40.0961 173.716C38.3947 174.362 36.8093 174.216 35.34 173.276C33.8449 172.325 32.6642 170.709 31.7979 168.428C31.102 166.596 30.9449 164.858 31.3266 163.216C31.6896 161.58 32.5548 160.225 33.922 159.149C34.3606 159.346 34.8079 159.679 35.264 160.148C35.7201 160.617 36.0298 161.066 36.1931 161.496C36.3209 161.832 36.3549 162.119 36.295 162.356C36.2164 162.599 36.0199 162.899 35.7054 163.254C35.1182 163.904 34.758 164.533 34.6248 165.14C34.4915 165.747 34.5776 166.452 34.8829 167.256C35.6427 169.257 36.6864 170.005 38.0138 169.501C38.5374 169.302 38.9283 169.036 39.1868 168.702C39.4265 168.376 39.5908 167.907 39.6795 167.296C39.7495 166.692 39.7575 165.812 39.7035 164.655C39.6104 162.551 39.6375 160.904 39.7847 159.715C39.9131 158.532 40.202 157.631 40.6511 157.011C41.0932 156.372 41.7537 155.886 42.6324 155.552C43.9038 155.07 45.1534 154.98 46.3813 155.284C47.6021 155.569 48.7108 156.207 49.7075 157.198C50.7042 158.188 51.5007 159.469 52.0972 161.039Z" fill="white"/>
<path d="M47.635 141.303C47.8585 143.753 47.6156 145.713 46.9062 147.184C46.1969 148.654 45.1152 149.456 43.6613 149.588C42.9642 149.652 42.3901 149.413 41.9391 148.872C41.4862 148.311 41.2008 147.493 41.0827 146.42C42.2469 146.193 43.1123 145.662 43.6788 144.827C44.2434 143.972 44.4649 142.878 44.3432 141.543C44.1197 139.093 43.1017 137.951 41.2892 138.116C40.5722 138.182 40.0155 138.574 39.6192 139.293C39.2211 139.992 38.8584 141.19 38.5312 142.887C38.0883 145.297 37.409 147.096 36.4931 148.284C35.5574 149.474 34.2829 150.143 32.6696 150.29C30.8571 150.455 29.3694 149.888 28.2065 148.588C27.0219 147.271 26.3187 145.397 26.097 142.967C25.919 141.015 26.2344 139.299 27.0433 137.819C27.8323 136.342 29.0298 135.268 30.6357 134.6C31.0051 134.908 31.3466 135.348 31.66 135.922C31.9735 136.496 32.1511 137.012 32.1929 137.47C32.2256 137.829 32.1813 138.114 32.0601 138.326C31.9189 138.54 31.6492 138.775 31.2509 139.032C30.5105 139.501 29.9946 140.01 29.7032 140.559C29.4119 141.108 29.3053 141.81 29.3834 142.667C29.5778 144.798 30.3821 145.799 31.7962 145.67C32.3539 145.619 32.802 145.468 33.1405 145.216C33.4591 144.966 33.7433 144.559 33.993 143.994C34.2228 143.43 34.467 142.585 34.7255 141.457C35.2011 139.405 35.6696 137.826 36.1309 136.719C36.5724 135.615 37.0927 134.824 37.6919 134.348C38.2893 133.851 39.0561 133.56 39.9922 133.475C41.3465 133.352 42.5743 133.601 43.6754 134.224C44.7747 134.826 45.6713 135.738 46.3652 136.961C47.0591 138.183 47.4823 139.63 47.635 141.303Z" fill="white"/>
</svg>
