<svg width="285" height="212" viewBox="0 0 285 212" fill="none" xmlns="http://www.w3.org/2000/svg">
<ellipse cx="142.5" cy="92" rx="142.5" ry="92" fill="#FCD34D"/>
<path d="M231.812 212C199.309 212 175.811 192.5 178.162 178.866C189.311 177 190.311 178.866 208.526 173C207.311 178.866 219.75 197.622 231.812 212Z" fill="#FCD34D"/>
<path d="M94.5866 109.303L93.334 116.005C93.1769 117.023 93.0605 118.07 92.9846 119.143C92.9087 120.217 92.7897 121.158 92.6274 121.966C92.4716 122.807 92.1129 123.512 91.5512 124.079C91.0236 124.639 90.3879 125.097 89.6443 125.452C88.9071 125.841 88.1098 126.1 87.2521 126.23C86.4286 126.353 85.6672 126.341 84.968 126.193C83.3732 125.793 82.6464 124.768 82.7877 123.117C83.0308 115.939 83.4336 110.143 83.9963 105.728C84.5931 101.306 85.1048 97.8186 85.5315 95.2653C85.9922 92.7055 86.4607 90.003 86.9371 87.1578C86.8493 86.1509 87.0876 85.1872 87.6518 84.2667C88.2161 83.3462 88.9257 82.5389 89.7806 81.8449C90.6696 81.1444 91.6221 80.5904 92.6382 80.1832C93.6476 79.7418 94.5773 79.5277 95.427 79.5407C96.2768 79.5538 96.9446 79.8136 97.4304 80.3203C97.9502 80.8204 98.1447 81.6479 98.0139 82.8028C97.3908 86.1705 96.9485 88.5502 96.6867 89.9421C96.4249 91.3339 96.188 92.5798 95.976 93.6796L95.1946 97.3249C95.916 97.2214 96.7985 96.9457 97.842 96.4979C99.7313 95.6755 101.132 95.2472 102.043 95.2131C102.01 95.0429 102.04 94.7372 102.131 94.2959C102.285 89.9593 102.624 85.9403 103.148 82.2388C103.449 79.2155 105.356 77.2952 108.87 76.4779C110.266 76.2094 111.387 76.3468 112.233 76.8901C113.153 77.4544 113.442 78.4049 113.099 79.7418C111.657 89.1273 110.777 96.4806 110.459 101.802C110.122 107.939 109.911 112.074 109.828 114.208C109.778 116.336 109.619 117.62 109.351 118.06C109.082 118.5 108.774 118.824 108.426 119.032C108.118 119.268 107.807 119.487 107.493 119.688C107.179 119.89 106.972 120.283 106.872 120.867L106.719 120.896C106.565 121.561 106.061 122.153 105.207 122.67C104.353 123.187 103.44 123.486 102.467 123.568C101.535 123.676 100.686 123.486 99.9218 122.998C99.1977 122.537 98.8709 121.665 98.9415 120.38C98.9087 118.374 99.0709 116.19 99.4282 113.826C99.7789 111.429 100.054 109.558 100.255 108.213C100.489 106.862 100.654 105.612 100.751 104.464C100.505 104.652 100.252 104.807 99.9932 104.927C99.768 105.041 99.4878 105.236 99.1526 105.513C98.8109 105.755 98.4489 105.983 98.0666 106.198C97.7183 106.406 97.37 106.615 97.0218 106.823C96.1406 107.381 95.4297 107.906 94.8889 108.398L94.5866 109.303ZM99.6986 104.772C99.7326 104.766 99.893 104.682 100.18 104.521C99.9886 104.628 99.8282 104.712 99.6986 104.772ZM130.911 106.022C130.323 106.453 129.739 106.812 129.159 107.1C128.579 107.389 127.897 107.696 127.113 108.024C125.053 108.879 123.553 109.432 122.613 109.684C122.781 110.004 123.37 110.315 124.381 110.614C125.013 110.599 125.661 110.386 126.323 109.976C127.013 109.525 127.727 109.106 128.464 108.717C129.229 108.287 129.982 107.984 130.725 107.805C131.501 107.621 132.289 107.769 133.087 108.251C133.478 108.811 133.768 109.126 133.957 109.196C134.147 109.265 134.31 109.287 134.446 109.26C134.583 109.234 134.746 109.256 134.936 109.325C135.125 109.395 135.439 109.74 135.876 110.362C136.348 110.978 136.387 111.641 135.994 112.352C135.636 113.056 134.988 113.728 134.052 114.367C133.116 115.006 131.993 115.593 130.684 116.127C129.375 116.661 128.049 117.11 126.707 117.475C123.689 118.302 121.311 118.513 119.574 118.105C117.108 117.768 115.312 116.507 114.186 114.323C112.712 111.43 112.518 107.76 113.604 103.315C114.088 101.245 115.04 98.9436 116.459 96.4112C117.692 94.197 119.214 92.4745 121.025 91.2436C123.116 89.8175 125.411 88.8995 127.909 88.4895C130.577 88.0468 132.638 88.8506 134.092 90.9009C134.832 91.9942 135.255 93.6426 135.361 95.8462C135.353 98.7425 135.018 100.854 134.356 102.182C133.687 103.476 132.538 104.756 130.911 106.022ZM126.397 98.5238C124.521 98.4964 123.305 99.7895 122.748 102.403C122.566 103.109 122.459 103.835 122.426 104.583C123.61 104.497 124.711 103.614 125.73 101.935C126.095 101.265 126.341 100.617 126.468 99.9929C126.588 99.3343 126.565 98.8446 126.397 98.5238ZM148.803 108.352C148.737 109.106 148.619 109.782 148.452 110.379C148.284 110.976 147.974 111.565 147.521 112.146C147.068 112.728 146.506 113.295 145.836 113.847C145.172 114.434 144.516 114.878 143.868 115.179C142.368 115.821 141.462 115.518 141.152 114.272C140.984 113.951 140.724 113.789 140.37 113.787C140.057 113.812 139.752 113.782 139.453 113.699C138.679 113.53 138.314 112.735 138.359 111.314C138.543 109.337 138.704 106.959 138.84 104.179C138.969 101.365 139.237 98.2602 139.642 94.8637C140.566 86.637 142.216 79.065 144.592 72.1476C144.771 71.7953 144.968 71.3515 145.183 70.8159C145.391 70.2463 145.694 69.7115 146.092 69.2113C147.074 67.8927 148.489 67.3558 150.336 67.6005C150.387 68.0496 150.568 68.4384 150.878 68.7671C151.182 69.0616 151.523 69.3667 151.902 69.6822C152.855 70.4167 153.366 71.1479 153.436 71.8759C151.471 81.1148 150.057 91.2891 149.194 102.399C149.089 103.69 149.023 104.815 148.996 105.773C148.968 106.732 148.904 107.591 148.803 108.352ZM163.813 105.464C163.747 106.218 163.629 106.894 163.462 107.491C163.294 108.088 162.984 108.677 162.531 109.259C162.078 109.84 161.516 110.407 160.846 110.96C160.182 111.546 159.526 111.99 158.878 112.292C157.378 112.933 156.472 112.631 156.162 111.384C155.994 111.064 155.734 110.902 155.38 110.899C155.067 110.924 154.761 110.895 154.463 110.811C153.689 110.642 153.324 109.847 153.369 108.427C153.553 106.45 153.714 104.071 153.849 101.291C153.979 98.4777 154.246 95.3725 154.652 91.9761C155.576 83.7494 157.226 76.1774 159.602 69.26C159.781 68.9077 159.978 68.4638 160.193 67.9283C160.401 67.3587 160.704 66.8238 161.102 66.3236C162.084 65.0051 163.499 64.4681 165.346 64.7129C165.397 65.162 165.578 65.5508 165.888 65.8794C166.192 66.174 166.533 66.4791 166.912 66.7946C167.865 67.5291 168.376 68.2603 168.446 68.9883C166.481 78.2272 165.067 88.4015 164.204 99.5113C164.099 100.802 164.033 101.927 164.006 102.886C163.978 103.844 163.914 104.704 163.813 105.464ZM172.152 83.3141C172.769 82.6659 173.631 82.3765 174.739 82.4458C174.949 82.4406 175.157 82.4183 175.361 82.379C175.815 80.703 176.955 79.6541 178.78 79.2324C179.25 79.1067 179.898 78.8939 180.723 78.594C181.547 78.2941 182.575 78.1316 183.806 78.1067C185.071 78.0752 186.212 78.2263 187.229 78.5601C189.447 79.2631 190.957 80.5965 191.759 82.5605C193.152 85.399 193.662 88.69 193.287 92.4335C192.917 96.5645 191.613 100.063 189.376 102.929C188.36 104.255 187.197 105.184 185.888 105.719C184.585 106.287 183.392 106.693 182.31 106.937C181.227 107.18 180.223 107.373 179.297 107.516C178.412 107.686 177.527 107.768 176.643 107.762C174.733 107.741 173.051 107.164 171.598 106.032C169.907 104.768 168.853 102.5 168.435 99.2268C168.021 96.341 168.183 93.3269 168.92 90.1844C169.684 87.0014 170.762 84.7113 172.152 83.3141ZM183.114 91.8489C182.315 92.285 181.538 92.558 180.783 92.6681C180.48 93.1146 180.218 93.5886 179.997 94.0901C179.803 94.551 179.504 95.0145 179.1 95.4807C178.688 95.9128 178.476 96.0948 178.463 96.0267C178.042 96.9551 177.729 97.8978 177.525 98.8549C177.314 99.778 177.481 100.646 178.026 101.459C179.414 101.333 180.411 101.106 181.019 100.777C181.626 100.449 182.147 99.9427 182.58 99.2592C183.047 98.5691 183.359 97.8031 183.515 96.9612C183.846 95.3795 183.712 93.6754 183.114 91.8489ZM212.944 59.8981C213.159 60.2804 213.368 60.5403 213.571 60.6778C213.767 60.7812 213.906 60.8604 213.987 60.9154C214.19 61.0528 214.164 61.3756 213.909 61.8836C213.72 62.5553 213.432 63.3521 213.045 64.2739C212.339 65.9276 211.916 67.1211 211.774 67.8544C210.916 70.9144 210.321 73.6942 209.99 76.1937C209.652 78.6592 209.391 80.8805 209.207 82.8577C209.022 84.8348 208.812 86.5873 208.576 88.1154C208.285 89.9013 207.809 91.2814 207.149 92.2556C206.871 93.015 206.228 93.6154 205.218 94.0567C204.209 94.4981 203.146 94.7554 202.031 94.8288C200.909 94.8682 199.904 94.6908 199.016 94.2968C198.162 93.8962 197.752 93.2337 197.786 92.3093C197.545 89.0373 197.59 86.2399 197.919 83.9171C198.283 81.5877 198.6 79.6558 198.87 78.1212C199.173 76.5801 199.421 75.2085 199.614 74.0065C199.8 72.7705 199.984 71.7112 200.167 70.8287C200.378 69.9056 200.633 68.9386 200.933 67.9278C201.226 66.8829 201.554 65.8315 201.915 64.7735C202.304 63.675 202.709 62.6615 203.13 61.7332C204.098 59.6054 205.008 58.2829 205.862 57.7657C206.709 57.2144 207.586 56.8163 208.492 56.5714C209.432 56.3199 210.269 56.2648 211.002 56.4062C211.769 56.541 212.348 56.8886 212.738 57.449C213.128 58.0093 213.197 58.8257 212.944 59.8981ZM208.147 100.748C208.041 102.216 207.458 103.405 206.398 104.315C205.378 105.252 204.207 105.866 202.886 106.155C201.571 106.479 200.28 106.462 199.011 106.106C197.783 105.778 196.918 105.044 196.416 103.905C195.887 102.806 195.868 101.786 196.357 100.845C196.874 99.863 197.57 99.1644 198.443 98.7492C199.31 98.3001 200.346 97.9066 201.552 97.5687C202.792 97.2242 203.945 97.0729 205.012 97.1147C206.08 97.1565 206.948 97.4485 207.617 97.9905C208.286 98.5325 208.463 99.4517 208.147 100.748Z" fill="#DC2626"/>
</svg>
