<svg width="293" height="143" viewBox="0 0 293 143" fill="none" xmlns="http://www.w3.org/2000/svg">
<path d="M1.2289 51.0776C0.550197 37.2871 11.1794 25.5576 24.9698 24.8789L261.683 13.2289C275.474 12.5502 287.203 23.1794 287.882 36.9698L291.175 103.889C291.854 117.679 281.225 129.409 267.435 130.087L30.721 141.737C16.9306 142.416 5.20105 131.787 4.52235 117.997L1.2289 51.0776Z" fill="#60A5FA" fill-opacity="0.7"/>
<path d="M90.3058 60.3605L85.4725 60.6779C85.3555 60.6856 85.2863 60.6249 85.2648 60.4958L78.7479 33.384C78.7151 33.2818 78.7507 33.2273 78.8546 33.2204L83.3372 32.9261C83.4411 32.9193 83.5095 32.967 83.5423 33.0692L87.2791 50.9292L88.7264 32.7289C88.7456 32.6232 88.8201 32.5661 88.9501 32.5576L92.5556 32.3208C92.6595 32.314 92.7279 32.3617 92.7607 32.464L96.5365 50.3214L97.9449 32.1236C97.964 32.0179 98.0256 31.9617 98.1295 31.9549L102.573 31.6631C102.703 31.6546 102.758 31.7031 102.739 31.8088L99.7843 59.5424C99.7747 59.5953 99.7387 59.6433 99.6763 59.6865L99.6022 59.7501L94.7689 60.0675C94.6909 60.0726 94.6217 60.0119 94.5612 59.8854L91.5743 45.6951L90.4879 60.1528C90.4835 60.2836 90.4228 60.3528 90.3058 60.3605ZM117.532 58.5729L104.63 59.42C104.527 59.4268 104.47 59.3653 104.462 59.2353L102.7 31.8113C102.693 31.7074 102.742 31.652 102.846 31.6452L115.67 30.8032C115.774 30.7964 115.83 30.8579 115.839 30.9878L116.132 35.4509C116.138 35.5548 116.09 35.6102 115.986 35.617L107.8 36.1545L108.21 42.3911L116.395 41.8536C116.499 41.8468 116.555 41.8953 116.562 41.9993L116.897 46.5182C116.904 46.6222 116.856 46.6776 116.752 46.6844L108.527 47.2244L108.985 54.2016L117.21 53.6616C117.314 53.6547 117.37 53.7163 117.379 53.8462L117.678 58.4067C117.685 58.5106 117.636 58.566 117.532 58.5729ZM128.544 57.8499L121.391 58.3195C121.287 58.3263 121.231 58.2648 121.223 58.1348L119.5 30.7083C119.493 30.6043 119.542 30.549 119.646 30.5421L127.324 30.038C128.819 29.9399 130.2 30.2145 131.469 30.8619C132.713 31.511 133.718 32.4171 134.486 33.5803C135.253 34.7304 135.683 36.0071 135.775 37.4103C135.85 38.5537 135.66 39.6362 135.205 40.6577C134.75 41.6793 134.186 42.5189 133.511 43.1765C134.328 43.8927 134.984 44.7435 135.479 45.7288C135.975 46.7141 136.259 47.7654 136.332 48.8828C136.434 50.4289 136.156 51.863 135.499 53.1849C134.829 54.5077 133.889 55.5937 132.679 56.4431C131.468 57.2794 130.09 57.7483 128.544 57.8499ZM127.635 34.7739L124.595 34.9735L125.007 41.249L128.047 41.0494C128.97 40.9888 129.696 40.615 130.225 39.9278C130.753 39.2276 130.992 38.4942 130.942 37.7277C130.886 36.8831 130.533 36.1691 129.881 35.5855C129.228 34.989 128.48 34.7184 127.635 34.7739ZM127.761 45.9224L125.324 46.0824L125.749 53.1401L128.224 52.9775C129.185 52.9144 129.987 52.5094 130.63 51.7626C131.272 51.0158 131.562 50.1616 131.499 49.2002C131.436 48.2387 131.037 47.4362 130.304 46.7928C129.57 46.1494 128.722 45.8593 127.761 45.9224ZM142.835 28.731C142.657 29.678 142.417 30.7093 142.116 31.8247C141.815 32.9401 141.475 34.0582 141.094 35.1789C140.738 36.2712 140.379 37.3103 140.016 38.2962L137.421 38.4666C137.559 37.7093 137.693 36.8988 137.823 36.035C137.98 35.1696 138.11 34.3058 138.214 33.4438C138.343 32.5535 138.446 31.6915 138.525 30.8579C138.631 30.0225 138.714 29.2554 138.775 28.5566L142.527 28.3102L142.835 28.731ZM164.441 55.4538L157.29 55.9624C157.161 55.9709 157.091 55.9102 157.083 55.7803L155.36 28.3537C155.353 28.2498 155.402 28.1944 155.506 28.1876L162.968 27.6585C164.446 27.5223 165.807 27.7722 167.049 28.4083C168.304 29.0436 169.329 29.9485 170.124 31.1229C170.931 32.2834 171.383 33.5978 171.479 35.066L172.232 46.5257C172.332 48.0588 172.054 49.4864 171.397 50.8083C170.726 52.1181 169.792 53.1907 168.594 54.0262C167.395 54.8487 166.011 55.3246 164.441 55.4538ZM163.281 32.4334L160.497 32.6554L161.645 50.744L164.121 50.5815C165.108 50.5166 165.917 50.1177 166.547 49.3847C167.178 48.6517 167.461 47.8045 167.398 46.843L166.643 35.3444C166.588 34.4998 166.228 33.7862 165.563 33.2035C164.898 32.6078 164.137 32.3511 163.281 32.4334ZM188.98 53.8817L176.078 54.7288C175.974 54.7356 175.918 54.6741 175.909 54.5441L174.148 27.1202C174.141 27.0162 174.19 26.9608 174.294 26.954L187.118 26.112C187.222 26.1052 187.278 26.1667 187.286 26.2967L187.579 30.7597C187.586 30.8637 187.538 30.919 187.434 30.9259L179.248 31.4633L179.658 37.6999L187.843 37.1624C187.947 37.1556 188.002 37.2042 188.009 37.3081L188.345 41.8271C188.352 41.931 188.303 41.9864 188.199 41.9932L179.975 42.5332L180.433 49.5104L188.658 48.9704C188.762 48.9636 188.818 49.0251 188.826 49.155L189.126 53.7155C189.133 53.8195 189.084 53.8749 188.98 53.8817ZM201.999 53.0269L197.166 53.3442C197.049 53.3519 196.979 53.2912 196.958 53.1621L189.642 26.1028C189.609 26.0006 189.658 25.9452 189.788 25.9367L194.309 25.6398C194.413 25.633 194.481 25.6807 194.514 25.7829L198.989 43.8489L200.985 25.3581C201.004 25.2524 201.065 25.1962 201.169 25.1894L205.632 24.8963C205.775 24.887 205.831 24.9355 205.799 25.042L202.181 52.8192C202.177 52.95 202.116 53.0192 201.999 53.0269ZM216.758 52.4492C215.342 52.5422 214.013 52.2642 212.769 51.6151C211.539 50.9651 210.527 50.0594 209.733 48.898C208.951 47.7227 208.513 46.4075 208.417 44.9523L208.297 43.1203C208.288 42.9774 208.348 42.9016 208.478 42.8931L212.96 42.5988C213.064 42.592 213.121 42.66 213.13 42.8029L213.251 44.6349C213.308 45.5055 213.65 46.2399 214.276 46.8381C214.902 47.4234 215.624 47.6891 216.442 47.6354C217.274 47.5808 217.961 47.216 218.504 46.5409C219.046 45.8529 219.289 45.0866 219.234 44.2421C219.17 43.2676 218.477 42.4584 217.156 41.8144C216.94 41.6981 216.657 41.5601 216.307 41.4004C215.969 41.2268 215.565 41.0315 215.094 40.8145C214.623 40.5975 214.166 40.3862 213.721 40.1805C213.277 39.9617 212.845 39.7552 212.428 39.5607C210.917 38.7988 209.761 37.7981 208.962 36.5587C208.175 35.3055 207.729 33.8733 207.623 32.2622C207.526 30.781 207.802 29.4189 208.451 28.1758C209.101 26.9456 209.988 25.9479 211.112 25.1825C212.248 24.4032 213.505 23.9684 214.882 23.878C216.299 23.785 217.621 24.0505 218.849 24.6744C220.079 25.3114 221.083 26.1981 221.862 27.3343C222.654 28.4698 223.099 29.7716 223.195 31.2398L223.41 34.514C223.417 34.6179 223.368 34.6733 223.264 34.6801L218.782 34.9744C218.678 34.9813 218.623 34.9327 218.616 34.8288L218.362 31.5571C218.3 30.6216 217.958 29.8807 217.335 29.3345C216.712 28.7882 215.998 28.5415 215.192 28.5944C214.374 28.6481 213.692 29.006 213.149 29.6681C212.605 30.3301 212.361 31.0899 212.418 31.9474C212.475 32.8179 212.704 33.5336 213.107 34.0944C213.522 34.6543 214.241 35.1682 215.263 35.6361C215.37 35.6812 215.619 35.7954 216.01 35.9785C216.4 36.1617 216.831 36.3683 217.303 36.5983C217.787 36.8144 218.224 37.0141 218.615 37.1972C219.004 37.3674 219.239 37.4694 219.32 37.5032C220.694 38.1568 221.799 38.9976 222.637 40.0257C223.487 41.0529 223.964 42.3526 224.067 43.9247C224.167 45.4449 223.906 46.8322 223.283 48.0866C222.648 49.3418 221.762 50.3591 220.626 51.1383C219.49 51.9176 218.201 52.3546 216.758 52.4492ZM93.8512 132.244L86.7012 132.752C86.5713 132.761 86.502 132.7 86.4935 132.57L84.771 105.144C84.7642 105.04 84.8127 104.984 84.9167 104.977L92.3785 104.448C93.8571 104.312 95.2176 104.562 96.4598 105.198C97.7151 105.833 98.7401 106.738 99.5349 107.913C100.342 109.073 100.794 110.388 100.89 111.856L101.642 123.316C101.743 124.849 101.465 126.276 100.808 127.598C100.137 128.908 99.2027 129.981 98.0049 130.816C96.8062 131.639 95.4216 132.114 93.8512 132.244ZM92.692 109.223L89.9076 109.445L91.0561 127.534L93.5313 127.371C94.5187 127.306 95.3277 126.908 95.9581 126.175C96.5885 125.442 96.8721 124.594 96.809 123.633L96.054 112.134C95.9986 111.29 95.6385 110.576 94.9739 109.993C94.3085 109.398 93.5478 109.141 92.692 109.223ZM118.391 130.672L105.489 131.519C105.385 131.525 105.329 131.464 105.32 131.334L103.559 103.91C103.552 103.806 103.6 103.751 103.704 103.744L116.528 102.902C116.632 102.895 116.688 102.957 116.697 103.087L116.99 107.55C116.997 107.654 116.948 107.709 116.844 107.716L108.659 108.253L109.068 114.49L117.254 113.952C117.358 113.945 117.413 113.994 117.42 114.098L117.756 118.617C117.763 118.721 117.714 118.776 117.61 118.783L109.386 119.323L109.844 126.3L118.068 125.76C118.172 125.753 118.228 125.815 118.237 125.945L118.536 130.505C118.543 130.609 118.495 130.665 118.391 130.672ZM128.902 130.373C127.485 130.466 126.156 130.188 124.913 129.539C123.682 128.889 122.67 127.983 121.876 126.822C121.095 125.646 120.656 124.331 120.56 122.876L120.44 121.044C120.431 120.901 120.491 120.825 120.621 120.817L125.104 120.522C125.207 120.516 125.264 120.584 125.274 120.727L125.394 122.559C125.451 123.429 125.793 124.163 126.419 124.762C127.045 125.347 127.767 125.613 128.586 125.559C129.417 125.504 130.104 125.14 130.647 124.465C131.189 123.777 131.432 123.01 131.377 122.166C131.313 121.191 130.62 120.382 129.299 119.738C129.083 119.622 128.8 119.484 128.45 119.324C128.113 119.15 127.708 118.955 127.237 118.738C126.766 118.521 126.309 118.31 125.865 118.104C125.42 117.885 124.989 117.679 124.571 117.484C123.06 116.722 121.905 115.722 121.105 114.482C120.319 113.229 119.872 111.797 119.766 110.186C119.669 108.705 119.945 107.342 120.594 106.099C121.244 104.869 122.131 103.871 123.255 103.106C124.392 102.327 125.648 101.892 127.026 101.802C128.442 101.709 129.764 101.974 130.993 102.598C132.222 103.235 133.226 104.122 134.005 105.258C134.798 106.393 135.242 107.695 135.338 109.163L135.553 112.438C135.56 112.542 135.512 112.597 135.408 112.604L130.925 112.898C130.821 112.905 130.766 112.856 130.759 112.752L130.505 109.481C130.444 108.545 130.101 107.804 129.478 107.258C128.855 106.712 128.141 106.465 127.335 106.518C126.517 106.572 125.836 106.93 125.292 107.592C124.748 108.254 124.504 109.014 124.561 109.871C124.618 110.742 124.848 111.457 125.25 112.018C125.665 112.578 126.384 113.092 127.406 113.56C127.514 113.605 127.762 113.719 128.153 113.902C128.543 114.085 128.974 114.292 129.446 114.522C129.93 114.738 130.367 114.938 130.758 115.121C131.147 115.291 131.383 115.393 131.463 115.427C132.837 116.08 133.943 116.921 134.78 117.949C135.63 118.977 136.107 120.276 136.21 121.848C136.31 123.369 136.049 124.756 135.427 126.01C134.791 127.265 133.906 128.283 132.769 129.062C131.633 129.841 130.344 130.278 128.902 130.373ZM144.195 128.977L139.673 129.274C139.543 129.283 139.474 129.222 139.465 129.092L137.704 101.668C137.697 101.564 137.746 101.509 137.85 101.502L142.332 101.208C142.436 101.201 142.491 101.249 142.498 101.353L144.338 128.772C144.346 128.902 144.299 128.97 144.195 128.977ZM155.193 128.647C153.75 128.741 152.428 128.469 151.224 127.831C150.008 127.193 149.003 126.293 148.209 125.132C147.428 123.97 146.989 122.641 146.89 121.147L146.06 108.499C145.964 107.043 146.235 105.695 146.871 104.452C147.493 103.198 148.372 102.175 149.507 101.382C150.642 100.577 151.911 100.128 153.314 100.036C154.782 99.94 156.131 100.204 157.359 100.828C158.588 101.465 159.586 102.358 160.354 103.508C161.134 104.658 161.573 105.979 161.671 107.474L161.791 109.306C161.798 109.409 161.736 109.466 161.607 109.474L157.124 109.769C157.02 109.775 156.965 109.727 156.958 109.623L156.858 108.103C156.791 107.089 156.451 106.27 155.835 105.645C155.22 105.02 154.484 104.735 153.626 104.792C152.86 104.842 152.199 105.205 151.643 105.881C151.087 106.557 150.837 107.324 150.893 108.181L151.724 120.83C151.781 121.7 152.123 122.435 152.749 123.033C153.375 123.618 154.084 123.885 154.877 123.833C155.734 123.776 156.429 123.424 156.96 122.776C157.491 122.115 157.727 121.336 157.668 120.439L157.539 118.471L154.752 118.654C154.609 118.663 154.533 118.603 154.525 118.473L154.232 114.01C154.223 113.88 154.29 113.811 154.433 113.801L161.898 113.311C162.002 113.304 162.058 113.366 162.066 113.496L162.501 120.122C162.599 121.616 162.337 122.991 161.715 124.245C161.08 125.5 160.201 126.524 159.079 127.315C157.956 128.106 156.661 128.55 155.193 128.647ZM170.174 127.272L166.178 127.534C165.971 127.547 165.861 127.463 165.849 127.281L164.025 100.096C164.011 99.8886 164.108 99.7778 164.316 99.7642L167.922 99.5274L175.697 114.813L174.49 99.4093C174.477 99.2014 174.587 99.0898 174.821 99.0744L178.777 98.8147C178.933 98.8044 179.018 98.9033 179.031 99.1111L180.858 126.335C180.868 126.491 180.808 126.573 180.679 126.582L177.17 126.812L169.287 112.571L170.524 126.935C170.537 127.143 170.421 127.255 170.174 127.272ZM197.4 125.484L184.498 126.331C184.394 126.338 184.338 126.276 184.33 126.146L182.568 98.7223C182.561 98.6184 182.61 98.563 182.714 98.5562L195.538 97.7142C195.642 97.7073 195.698 97.7689 195.707 97.8988L196 102.362C196.006 102.466 195.958 102.521 195.854 102.528L187.668 103.065L188.078 109.302L196.263 108.765C196.367 108.758 196.423 108.806 196.43 108.91L196.765 113.429C196.772 113.533 196.724 113.589 196.62 113.595L188.395 114.135L188.853 121.113L197.078 120.573C197.182 120.566 197.238 120.627 197.247 120.757L197.546 125.318C197.553 125.422 197.504 125.477 197.4 125.484ZM205.781 124.934L201.259 125.23C201.155 125.237 201.099 125.176 201.09 125.046L199.368 97.6193C199.361 97.5153 199.41 97.4599 199.514 97.4531L207.582 96.9234C209.024 96.8287 210.373 97.0924 211.627 97.7147C212.882 98.337 213.905 99.2159 214.697 100.351C215.502 101.486 215.954 102.8 216.052 104.294C216.116 105.269 216.025 106.162 215.778 106.974C215.531 107.787 215.224 108.479 214.857 109.051C214.503 109.622 214.172 110.048 213.865 110.33C215.412 111.833 216.256 113.663 216.398 115.82L216.974 124.003C216.983 124.133 216.922 124.202 216.792 124.211L212.271 124.507C212.167 124.514 212.112 124.479 212.107 124.401L211.564 116.137C211.501 115.176 211.109 114.366 210.387 113.709C209.666 113.052 208.811 112.756 207.824 112.821L205.192 112.993L205.924 124.728C205.932 124.858 205.885 124.927 205.781 124.934ZM207.896 101.698L204.466 101.923L204.878 108.199L208.308 107.974C209.126 107.92 209.834 107.567 210.43 106.914C211.04 106.261 211.316 105.493 211.258 104.609C211.202 103.765 210.843 103.058 210.179 102.488C209.514 101.905 208.753 101.642 207.896 101.698Z" fill="#FEF2F2"/>
</svg>
