<svg width="54" height="65" viewBox="0 0 54 65" fill="none" xmlns="http://www.w3.org/2000/svg">
<path d="M33.157 25.1116C35.6319 24.9649 38.1079 25.3801 40.3996 26.3262C42.6913 27.2723 44.7391 28.7248 46.3897 30.5747C48.0403 32.4247 49.2509 34.6242 49.9307 37.0085C50.6105 39.3927 50.742 41.8999 50.3152 44.3422L37.3663 42.0813M33.157 25.1116C30.3035 19.3041 26.1166 14.2539 20.9384 10.3737C15.7602 6.49345 9.73757 3.89317 3.36242 2.78527C2.24497 9.15828 2.65083 15.7052 4.54687 21.8914C6.44291 28.0776 9.77534 33.7276 14.272 38.3799M33.157 25.1116C35.7678 30.3993 37.2041 36.1865 37.3663 42.0813M37.3663 42.0813C37.3744 42.3691 37.3794 42.6591 37.3817 42.9486C35.0137 45.0571 32.4109 46.8861 29.6247 48.3995C29.3525 48.2994 29.0809 48.1992 28.8108 48.0934M14.272 38.3799C13.2948 40.6588 12.846 43.1293 12.9593 45.6063C13.0725 48.0833 13.745 50.5025 14.9261 52.6827C16.1073 54.8628 17.7666 56.7474 19.7796 58.1951C21.7927 59.6429 24.1073 60.6162 26.55 61.0422L28.8108 48.0934M14.272 38.3799C18.3614 42.6275 23.3208 45.9429 28.8108 48.0934M34.2037 55.2592C35.2135 57.2642 36.7525 58.9547 38.6542 60.1477C40.5559 61.3407 42.7478 61.9906 44.9924 62.0272C45.7183 59.9027 45.8492 57.62 45.3707 55.4265C44.8923 53.233 43.8227 51.2121 42.278 49.5829M19.099 20.1274C20.1722 20.3148 21.127 20.9208 21.7534 21.8122C22.3798 22.7036 22.6264 23.8073 22.439 24.8805C22.2516 25.9537 21.6456 26.9085 20.7542 27.5349C19.8629 28.1612 18.7592 28.4079 17.686 28.2205C16.6128 28.0331 15.658 27.4271 15.0316 26.5357C14.4052 25.6443 14.1586 24.5406 14.346 23.4674C14.5333 22.3942 15.1394 21.4394 16.0307 20.8131C16.9221 20.1867 18.0258 19.94 19.099 20.1274Z" stroke="#FFFBEB" stroke-width="5.5" stroke-linecap="round" stroke-linejoin="round"/>
</svg>
