<svg width="133" height="133" viewBox="0 0 133 133" fill="none" xmlns="http://www.w3.org/2000/svg">
<path d="M97.543 101.012C116.777 83.693 118.33 54.061 101.012 34.8268C83.693 15.5925 54.061 14.0396 34.8267 31.3582C15.5925 48.6768 14.0395 78.3088 31.3581 97.543C48.6768 116.777 78.3087 118.33 97.543 101.012Z" fill="#FCD34D" stroke="black" stroke-width="1.1"/>
<path d="M97.543 101.012C116.777 83.693 118.33 54.061 101.012 34.8268C83.693 15.5925 54.061 14.0396 34.8267 31.3582C15.5925 48.6768 14.0395 78.3088 31.3581 97.543C48.6768 116.777 78.3087 118.33 97.543 101.012Z" fill="#FCD34D" stroke="black" stroke-width="1.1" stroke-miterlimit="10"/>
<path d="M44.4955 85.7155C47.0531 88.5897 50.1537 90.9299 53.619 92.6015C57.0843 94.273 60.8459 95.2431 64.6874 95.4557C68.5289 95.6683 72.3746 95.1192 76.0032 93.8403C79.6318 92.5613 82.9717 90.5775 85.8309 88.0031C88.6901 85.4287 91.012 82.3145 92.6633 78.8395C94.3146 75.3644 95.2626 71.5972 95.4527 67.7545C95.6428 63.9118 95.0713 60.0694 93.7711 56.4484C92.4709 52.8273 90.4677 49.499 87.8766 46.655" fill="#FCD34D"/>
<path d="M44.4955 85.7155C47.0531 88.5897 50.1537 90.9299 53.619 92.6015C57.0843 94.273 60.8459 95.2431 64.6874 95.4557C68.5289 95.6683 72.3746 95.1192 76.0032 93.8403C79.6318 92.5613 82.9717 90.5775 85.8309 88.0031C88.6901 85.4287 91.012 82.3145 92.6633 78.8395C94.3145 75.3644 95.2626 71.5972 95.4527 67.7545C95.6428 63.9118 95.0713 60.0694 93.7711 56.4484C92.4709 52.8273 90.4677 49.499 87.8766 46.655" stroke="black" stroke-width="1.1" stroke-miterlimit="10"/>
<path d="M48.5746 57.8229C47.5488 56.6837 46.1125 55.9987 44.5817 55.9184C43.0508 55.8382 41.5508 56.3694 40.4116 57.3951C39.2724 58.4208 38.5874 59.8571 38.5071 61.388C38.4269 62.9188 38.958 64.4189 39.9838 65.5581" fill="#FCD34D"/>
<path d="M48.5746 57.8229C47.5488 56.6837 46.1125 55.9987 44.5817 55.9184C43.0508 55.8382 41.5508 56.3694 40.4116 57.3951C39.2724 58.4208 38.5874 59.8571 38.5071 61.388C38.4269 62.9188 38.958 64.4189 39.9838 65.5581" stroke="black" stroke-width="1.1" stroke-miterlimit="10"/>
<path d="M68.3011 40.0608C67.2753 38.9216 65.8391 38.2365 64.3082 38.1562C62.7774 38.076 61.2773 38.6072 60.1381 39.633C58.9989 40.6587 58.3138 42.095 58.2336 43.6258C58.1534 45.1567 58.6846 46.6567 59.7103 47.7959" fill="#FCD34D"/>
<path d="M68.3011 40.0608C67.2753 38.9216 65.8391 38.2365 64.3082 38.1562C62.7774 38.076 61.2773 38.6072 60.1381 39.633C58.9989 40.6587 58.3138 42.095 58.2336 43.6258C58.1534 45.1567 58.6846 46.6567 59.7103 47.7959" stroke="black" stroke-width="1.1" stroke-miterlimit="10"/>
</svg>
